<?xml version="1.0" encoding="UTF-8"?>
<svg version="1.1" xmlns="http://www.w3.org/2000/svg" width="32" height="31">
<path d="M0 0 C4.1117256 -0.02465746 8.22342278 -0.04283959 12.33520508 -0.05493164 C13.73495228 -0.0599708 15.1346942 -0.06680216 16.53442383 -0.07543945 C18.54245777 -0.0875232 20.55052957 -0.09269807 22.55859375 -0.09765625 C24.37315063 -0.10551147 24.37315063 -0.10551147 26.22436523 -0.11352539 C29 0 29 0 30 1 C30.09993532 3.0605531 30.13080906 5.1245259 30.1328125 7.1875 C30.13474609 9.07082031 30.13474609 9.07082031 30.13671875 10.9921875 C30.13357666 11.97783691 30.13357666 11.97783691 30.13037109 12.98339844 C30.12502234 14.99161335 30.13031691 16.99960459 30.13671875 19.0078125 C30.13542969 20.26335938 30.13414063 21.51890625 30.1328125 22.8125 C30.13168457 23.97394531 30.13055664 25.13539062 30.12939453 26.33203125 C30 29 30 29 29 30 C26.85441173 30.08775605 24.70595579 30.10695219 22.55859375 30.09765625 C21.25341797 30.09443359 19.94824219 30.09121094 18.60351562 30.08789062 C17.2148431 30.07953401 15.82617123 30.07106905 14.4375 30.0625 C13.04492344 30.05748666 11.65234519 30.05292347 10.25976562 30.04882812 C6.8398013 30.03699434 3.41992156 30.0205088 0 30 C-1.31583724 27.36832552 -1.12955012 25.38524212 -1.1328125 22.44140625 C-1.13410156 21.33345703 -1.13539062 20.22550781 -1.13671875 19.08398438 C-1.13285156 17.92189453 -1.12898437 16.75980469 -1.125 15.5625 C-1.12886719 14.40427734 -1.13273438 13.24605469 -1.13671875 12.05273438 C-1.13542969 10.94349609 -1.13414063 9.83425781 -1.1328125 8.69140625 C-1.13168457 7.67248291 -1.13055664 6.65355957 -1.12939453 5.60375977 C-1 3 -1 3 0 0 Z " fill="#ABF6B4" transform="translate(1,1)"/>
<path d="M0 0 C6.93 0 13.86 0 21 0 C21 6.6 21 13.2 21 20 C14.07 20 7.14 20 0 20 C0 13.4 0 6.8 0 0 Z " fill="#5FF971" transform="translate(5,6)"/>
<path d="M0 0 C6.93 0 13.86 0 21 0 C21 6.6 21 13.2 21 20 C14.07 20 7.14 20 0 20 C0 13.4 0 6.8 0 0 Z M3 2 C2.67 7.61 2.34 13.22 2 19 C9.42769179 19.61354905 9.42769179 19.61354905 16.125 17.125 C18.56886047 14.35529146 18.95978595 13.36192645 19.375 9.625 C19.31033865 5.98384128 19.31033865 5.98384128 17.1875 3.5625 C12.37975734 1.2057634 8.32028699 1.74360063 3 2 Z " fill="#DCFCE0" transform="translate(5,6)"/>
<path d="M0 0 C8.25 0 16.5 0 25 0 C25 0.66 25 1.32 25 2 C17.74 2 10.48 2 3 2 C3 9.26 3 16.52 3 24 C10.59 24 18.18 24 26 24 C26 24.66 26 25.32 26 26 C17.42 26 8.84 26 0 26 C0 17.42 0 8.84 0 0 Z " fill="#5BFA6D" transform="translate(2,3)"/>
<path d="M0 0 C8.58 0 17.16 0 26 0 C26 4.95 26 9.9 26 15 C25.01 15.495 25.01 15.495 24 16 C24 12.04 24 8.08 24 4 C16.74 4 9.48 4 2 4 C2 3.67 2 3.34 2 3 C9.26 3 16.52 3 24 3 C24 2.34 24 1.68 24 1 C16.08 1 8.16 1 0 1 C0 0.67 0 0.34 0 0 Z " fill="#74F783" transform="translate(3,2)"/>
<path d="M0 0 C1.65 0 3.3 0 5 0 C7 2 7 2 7.25 5 C7 8 7 8 5 10 C3.35 10 1.7 10 0 10 C0 6.7 0 3.4 0 0 Z " fill="#E8FCEA" transform="translate(12,11)"/>
<path d="M0 0 C4.95 0 9.9 0 15 0 C15.33 0.99 15.66 1.98 16 3 C11.71 2.67 7.42 2.34 3 2 C3 2.99 3 3.98 3 5 C2.34 5 1.68 5 1 5 C1 9.95 1 14.9 1 20 C0.67 20 0.34 20 0 20 C0 13.4 0 6.8 0 0 Z " fill="#C8F8CE" transform="translate(5,6)"/>
<path d="M0 0 C0.33 0 0.66 0 1 0 C1.02696365 1.79158489 1.04637917 3.58328473 1.0625 5.375 C1.07410156 6.37273438 1.08570313 7.37046875 1.09765625 8.3984375 C1 11 1 11 0 13 C2.97 13 5.94 13 9 13 C9 12.34 9 11.68 9 11 C7.35 11 5.7 11 4 11 C4 10.67 4 10.34 4 10 C5.98 9.34 7.96 8.68 10 8 C10.33 6.35 10.66 4.7 11 3 C11.33 3 11.66 3 12 3 C12.33 5.97 12.66 8.94 13 12 C8.43362969 15.04424687 4.43284541 14.12783166 -1 14 C-0.67 9.38 -0.34 4.76 0 0 Z " fill="#89F696" transform="translate(8,11)"/>
<path d="M0 0 C0.66 0 1.32 0 2 0 C2.027193 1.58323688 2.04648306 3.16661062 2.0625 4.75 C2.07410156 5.63171875 2.08570313 6.5134375 2.09765625 7.421875 C2.00826198 9.7818838 1.66912821 11.74498524 1 14 C3.43847451 13.88602456 5.87513174 13.75929026 8.3125 13.625 C9.00279297 13.5940625 9.69308594 13.563125 10.40429688 13.53125 C14.06990789 13.31875081 15.87900792 13.08066139 19 11 C19 12.32 19 13.64 19 15 C12.73 15 6.46 15 0 15 C0 10.05 0 5.1 0 0 Z " fill="#F1FEF3" transform="translate(6,11)"/>
<path d="M0 0 C1.65 0 3.3 0 5 0 C5 1.65 5 3.3 5 5 C3.68 4.67 2.36 4.34 1 4 C0.67 2.68 0.34 1.36 0 0 Z " fill="#F2FDF3" transform="translate(20,6)"/>
</svg>
